<?xml version="1.0" standalone="no"?><!DOCTYPE svg PUBLIC "-//W3C//DTD SVG 1.1//EN" "http://www.w3.org/Graphics/SVG/1.1/DTD/svg11.dtd"><svg t="1732786056214" class="icon" viewBox="0 0 1024 1024" version="1.1" xmlns="http://www.w3.org/2000/svg" p-id="1489" xmlns:xlink="http://www.w3.org/1999/xlink" width="200" height="200"><path d="M521.85387 0.035053C233.730904-3.24639 6.605978 224.246549 6.053959 512.03217 5.532608 792.917561 232.013513 1023.385266 509.249449 1023.99862c282.142766 0.644022 508.37833-226.879585 508.685006-511.56777C1019.345169 234.949574 799.948501 3.224493 521.85387 0.035053z m329.647021 505.58757c-10.243009 77.558593-37.138575 147.450263-95.00851 201.854748-55.661861 52.319082-121.597399 77.098578-198.695976 63.39012-31.434384-5.58152-50.939036-18.277944-82.741433-49.865668-11.715058 43.425452-20.424683 86.513559-35.20651 127.42426-13.923132 38.579956-32.69176 63.11411-58.912636 100.375356-10.212341 16.008535-32.967769 10.641689-34.163809-19.872664-10.273677-70.137012 0.460015-122.701436 18.06327-190.231693 14.444483-55.355184 26.987569-111.201051 39.530655-166.985583 1.686723-7.544252-0.184006-16.560554-2.484083-24.258144-14.536486-48.730963-15.517852-96.357888 11.868397-141.25539 6.133538-10.059003 14.383148-19.657991 23.675458-26.83423 23.675458-18.247277 50.35635-23.798129 77.834602-9.261643 26.03687 13.769794 35.267846 38.947969 32.201077 65.843535-3.465449 30.269012-11.837729 60.078009-19.259311 89.764334-6.256209 25.11684-15.057837 49.589658-21.130039 74.706498-13.125772 54.34315 27.570255 98.99531 83.508125 92.7391 39.254646-4.38548 71.977073-21.804729 94.763168-53.576458 56.091209-78.202614 70.198347-165.176189 39.499987-255.676548-25.392849-74.890504-84.458824-113.685134-161.404063-124.326823-95.499193-13.217775-191.059721 23.092772-237.551941 114.605165-36.494553 71.88507-34.777163 143.647469 8.801627 213.26313 4.446815 7.114905 5.796194 17.848597 4.661489 26.374215-2.054735 15.425849-7.513585 30.361015-10.76436 45.694861-2.79076 13.095104-9.261643 15.425849-20.670024 9.476317-26.496886-13.831129-45.756196-34.961169-61.182045-59.955338-78.018608-126.381559-36.831898-304.928861 94.364488-385.922236 114.758503-70.873036 237.275933-77.190581 358.689325-16.407215 111.507728 55.815199 168.334961 173.211124 151.713072 298.917994z" fill="#13227a" p-id="1490"></path></svg>