<svg t="1733284176779" class="icon" viewBox="0 0 1024 1024" version="1.1" xmlns="http://www.w3.org/2000/svg" p-id="2201" width="200" height="200"><path d="M496.32 899.733333c-2.666667 1.28-5.546667 1.92-8.64 1.92H112.96c-11.52 0-20.8-9.6-20.8-21.333333s9.28-21.333333 20.8-21.333333h365.866667c194.346667 0 352-155.84 352-348.053334 0-182.613333-142.186667-332.373333-322.986667-346.88l24.426667 23.36c8.213333 7.893333 8.426667 20.906667 0.426666 29.12-8 8.106667-21.12 8.32-29.44 0.426667l-62.186666-59.626667c-8.533333-8.106667-8.426667-21.653333 0.213333-29.76l62.08-58.026666c8.32-7.786667 21.546667-7.36 29.333333 0.853333s7.466667 21.226667-0.853333 29.013333L506.986667 122.666667c204.16 14.293333 365.333333 182.613333 365.333333 388.266666 0.106667 209.173333-166.72 379.84-376 388.8zM477.013333 760.533333C339.2 760.533333 227.52 650.026667 227.52 513.813333S339.2 267.093333 477.013333 267.093333 726.506667 377.6 726.506667 513.813333 614.826667 760.533333 477.013333 760.533333z m-44.053333-327.466666c-7.146667-12.266667-20.586667-20.586667-36.053333-20.586667-22.933333 0-41.6 18.453333-41.6 41.066667 0 22.72 18.666667 41.066667 41.6 41.066666 14.72 0 27.733333-7.573333 35.093333-18.986666h167.04c11.52 0 20.8-9.6 20.8-21.333334s-9.28-21.333333-20.8-21.333333H432.96z m71.893333 163.093333c7.36 11.413333 20.373333 18.986667 35.093334 18.986667 22.933333 0 41.6-18.453333 41.6-41.066667s-18.666667-41.066667-41.6-41.066667c-15.36 0-28.8 8.32-36.053334 20.586667H355.093333c-11.52 0-20.8 9.6-20.8 21.333333s9.28 21.333333 20.8 21.333334h149.76z m360.32 305.493333h-120.533333c-11.52 0-20.8-9.6-20.8-21.333333s9.28-21.333333 20.8-21.333333h120.64l-23.786667-22.186667c-8.32-7.786667-8.746667-20.8-0.853333-29.013333s21.013333-8.64 29.333333-0.853334l62.08 58.026667c8.64 8 8.746667 21.546667 0.213334 29.76l-62.186667 59.626667c-8.213333 7.893333-21.44 7.68-29.44-0.426667-8-8.106667-7.786667-21.12 0.426667-29.12l24.106666-23.146667zM356.906667 140.8c10.88-3.52 22.613333 2.346667 26.24 13.226667 3.52 10.773333-2.453333 22.4-13.333334 25.92C226.133333 226.133333 126.933333 359.146667 126.933333 510.933333c0 104.32 46.72 201.066667 125.973334 266.88 8.746667 7.253333 9.92 20.266667 2.56 29.013334s-20.48 9.813333-29.333334 2.56C137.493333 735.786667 85.333333 627.626667 85.333333 510.933333c0-169.706667 110.933333-318.4 271.573334-370.133333z" p-id="2202" fill="#13227a"></path></svg>